<svg xmlns="http://www.w3.org/2000/svg" xmlns:xlink="http://www.w3.org/1999/xlink" width="1080" zoomAndPan="magnify" viewBox="0 0 810 809.999993" height="1080" preserveAspectRatio="xMidYMid meet" version="1.0"><defs><g/><clipPath id="829318d97c"><path d="M 49 249 L 786 249 L 786 539 L 49 539 Z M 49 249 " clip-rule="nonzero"/></clipPath><clipPath id="571b2031cd"><path d="M -30.179688 394.464844 L 394.617188 -30.332031 L 840.09375 415.144531 L 415.300781 839.941406 Z M -30.179688 394.464844 " clip-rule="nonzero"/></clipPath><clipPath id="0dd3b0d94f"><path d="M -30.179688 394.464844 L 394.617188 -30.332031 L 840.09375 415.144531 L 415.300781 839.941406 Z M -30.179688 394.464844 " clip-rule="nonzero"/></clipPath><clipPath id="69c5620be5"><path d="M 270.902344 383.335938 L 292.652344 383.335938 L 292.652344 405.085938 L 270.902344 405.085938 Z M 270.902344 383.335938 " clip-rule="nonzero"/></clipPath><clipPath id="08fbdc0e13"><path d="M 427.5 399.917969 L 460.5 399.917969 L 460.5 428.417969 L 427.5 428.417969 Z M 427.5 399.917969 " clip-rule="nonzero"/></clipPath></defs><g clip-path="url(#829318d97c)"><g clip-path="url(#571b2031cd)"><g clip-path="url(#0dd3b0d94f)"><path fill="#000000" d="M 751.386719 503.976562 C 748.707031 506.664062 745.898438 509.214844 742.96875 511.625 C 740.039062 514.039062 736.996094 516.300781 733.839844 518.414062 C 730.6875 520.527344 727.4375 522.480469 724.089844 524.273438 C 720.746094 526.066406 717.320312 527.6875 713.8125 529.144531 C 710.308594 530.601562 706.738281 531.878906 703.109375 532.984375 C 699.476562 534.089844 695.800781 535.011719 692.078125 535.753906 C 688.355469 536.496094 684.605469 537.054688 680.828125 537.429688 C 677.054688 537.800781 673.265625 537.988281 669.472656 537.988281 L 193.203125 538.195312 C 190.851562 538.1875 188.5 538.121094 186.152344 537.996094 C 183.804688 537.875 181.460938 537.691406 179.121094 537.453125 C 176.78125 537.214844 174.449219 536.921875 172.125 536.566406 C 169.796875 536.214844 167.484375 535.804688 165.179688 535.339844 C 162.875 534.875 160.582031 534.351562 158.300781 533.773438 C 156.023438 533.195312 153.757812 532.558594 151.511719 531.871094 C 149.261719 531.183594 147.035156 530.4375 144.820312 529.640625 C 142.609375 528.839844 140.417969 527.988281 138.25 527.082031 C 136.082031 526.175781 133.933594 525.21875 131.8125 524.207031 C 129.6875 523.199219 127.59375 522.136719 125.519531 521.023438 C 123.449219 519.90625 121.410156 518.746094 119.394531 517.53125 C 117.382812 516.316406 115.398438 515.054688 113.445312 513.746094 C 111.496094 512.433594 109.578125 511.074219 107.691406 509.671875 C 105.808594 508.265625 103.957031 506.816406 102.144531 505.320312 C 100.328125 503.824219 98.554688 502.285156 96.816406 500.703125 C 95.078125 499.121094 93.378906 497.496094 91.71875 495.832031 C 90.058594 494.164062 88.441406 492.460938 86.867188 490.714844 C 85.292969 488.96875 83.761719 487.1875 82.273438 485.367188 C 80.785156 483.546875 79.339844 481.691406 77.945312 479.800781 C 76.546875 477.910156 75.199219 475.988281 73.894531 474.03125 C 72.59375 472.074219 71.335938 470.085938 70.132812 468.066406 C 68.925781 466.046875 67.773438 464 66.667969 461.925781 C 65.5625 459.851562 64.507812 457.75 63.503906 455.621094 C 62.503906 453.496094 61.554688 451.347656 60.65625 449.171875 C 59.761719 447 58.917969 444.804688 58.128906 442.589844 C 57.339844 440.375 56.601562 438.144531 55.921875 435.890625 C 55.242188 433.640625 54.617188 431.375 54.050781 429.09375 C 53.480469 426.8125 52.96875 424.515625 52.511719 422.210938 C 52.054688 419.902344 51.65625 417.585938 51.3125 415.261719 C 50.96875 412.933594 50.683594 410.601562 50.453125 408.261719 C 50.222656 405.917969 50.054688 403.574219 49.9375 401.226562 C 49.824219 398.875 49.769531 396.527344 49.769531 394.175781 C 49.769531 391.824219 49.828125 389.472656 49.945312 387.121094 C 50.0625 384.773438 50.234375 382.429688 50.464844 380.089844 C 50.695312 377.746094 50.984375 375.414062 51.328125 373.085938 C 51.675781 370.761719 52.078125 368.441406 52.535156 366.136719 C 52.996094 363.828125 53.507812 361.535156 54.082031 359.253906 C 54.652344 356.96875 55.277344 354.703125 55.960938 352.453125 C 56.640625 350.199219 57.378906 347.964844 58.167969 345.75 C 58.960938 343.535156 59.804688 341.339844 60.703125 339.167969 C 61.605469 336.992188 62.554688 334.839844 63.558594 332.714844 C 64.5625 330.585938 65.617188 328.484375 66.726562 326.40625 C 67.832031 324.332031 68.988281 322.285156 70.195312 320.265625 C 71.402344 318.246094 72.660156 316.257812 73.964844 314.296875 C 75.269531 312.339844 76.621094 310.414062 78.019531 308.523438 C 79.417969 306.632812 80.863281 304.773438 82.351562 302.953125 C 83.839844 301.132812 85.375 299.347656 86.953125 297.601562 C 88.527344 295.855469 90.148438 294.148438 91.808594 292.480469 C 93.46875 290.8125 95.167969 289.1875 96.90625 287.605469 C 98.648438 286.019531 100.425781 284.480469 102.242188 282.984375 C 104.054688 281.484375 105.90625 280.035156 107.792969 278.628906 C 109.679688 277.222656 111.597656 275.863281 113.550781 274.550781 C 115.503906 273.238281 117.488281 271.972656 119.503906 270.757812 C 121.515625 269.542969 123.558594 268.375 125.632812 267.261719 C 127.703125 266.144531 129.800781 265.082031 131.925781 264.070312 C 134.046875 263.054688 136.195312 262.097656 138.367188 261.1875 C 140.535156 260.28125 142.726562 259.425781 144.941406 258.625 C 147.152344 257.824219 149.382812 257.082031 151.632812 256.390625 C 153.878906 255.699219 156.144531 255.0625 158.425781 254.480469 C 160.703125 253.902344 162.996094 253.378906 165.300781 252.910156 C 167.605469 252.441406 169.921875 252.03125 172.246094 251.675781 C 174.574219 251.320312 176.90625 251.023438 179.246094 250.78125 C 181.585938 250.542969 183.929688 250.359375 186.277344 250.234375 C 188.625 250.105469 190.976562 250.039062 193.328125 250.027344 L 593.199219 249.855469 C 594.09375 249.875 594.972656 249.984375 595.84375 250.175781 C 596.710938 250.371094 597.554688 250.644531 598.371094 251 C 599.191406 251.359375 599.964844 251.789062 600.699219 252.296875 C 601.429688 252.804688 602.109375 253.375 602.730469 254.011719 C 603.351562 254.652344 603.90625 255.34375 604.394531 256.089844 C 604.882812 256.835938 605.292969 257.621094 605.628906 258.445312 C 605.964844 259.273438 606.21875 260.121094 606.386719 260.996094 C 606.558594 261.871094 606.644531 262.753906 606.644531 263.644531 C 606.644531 264.539062 606.558594 265.421875 606.386719 266.296875 C 606.214844 267.171875 605.960938 268.019531 605.625 268.847656 C 605.289062 269.671875 604.875 270.460938 604.386719 271.207031 C 603.898438 271.953125 603.34375 272.644531 602.722656 273.28125 C 602.097656 273.921875 601.421875 274.492188 600.6875 275 C 599.953125 275.507812 599.179688 275.941406 598.363281 276.296875 C 597.542969 276.65625 596.699219 276.929688 595.832031 277.125 C 594.960938 277.320312 594.078125 277.425781 593.1875 277.449219 L 193.316406 277.625 C 191.410156 277.625 189.503906 277.671875 187.601562 277.765625 C 185.695312 277.863281 183.796875 278.003906 181.898438 278.191406 C 180 278.378906 178.109375 278.613281 176.222656 278.890625 C 174.339844 279.171875 172.460938 279.5 170.589844 279.871094 C 168.722656 280.246094 166.863281 280.664062 165.011719 281.125 C 163.164062 281.589844 161.324219 282.097656 159.5 282.652344 C 157.675781 283.207031 155.867188 283.804688 154.070312 284.449219 C 152.277344 285.09375 150.5 285.777344 148.738281 286.507812 C 146.976562 287.238281 145.234375 288.011719 143.507812 288.828125 C 141.785156 289.644531 140.082031 290.5 138.402344 291.398438 C 136.71875 292.300781 135.0625 293.238281 133.425781 294.21875 C 131.789062 295.199219 130.179688 296.21875 128.59375 297.28125 C 127.007812 298.339844 125.449219 299.4375 123.917969 300.574219 C 122.386719 301.710938 120.882812 302.882812 119.410156 304.09375 C 117.933594 305.304688 116.492188 306.546875 115.078125 307.828125 C 113.664062 309.109375 112.285156 310.425781 110.933594 311.773438 C 109.585938 313.121094 108.273438 314.503906 106.992188 315.914062 C 105.710938 317.328125 104.464844 318.773438 103.253906 320.246094 C 102.042969 321.71875 100.871094 323.222656 99.734375 324.753906 C 98.597656 326.285156 97.5 327.84375 96.441406 329.429688 C 95.382812 331.015625 94.359375 332.625 93.378906 334.261719 C 92.398438 335.894531 91.457031 337.554688 90.558594 339.238281 C 89.660156 340.917969 88.800781 342.621094 87.988281 344.34375 C 87.171875 346.066406 86.398438 347.808594 85.667969 349.570312 C 84.9375 351.332031 84.25 353.113281 83.605469 354.90625 C 82.964844 356.703125 82.363281 358.511719 81.8125 360.335938 C 81.257812 362.160156 80.746094 363.996094 80.285156 365.847656 C 79.820312 367.695312 79.402344 369.554688 79.027344 371.425781 C 78.65625 373.296875 78.328125 375.171875 78.046875 377.058594 C 77.765625 378.945312 77.53125 380.835938 77.34375 382.734375 C 77.15625 384.628906 77.015625 386.53125 76.921875 388.433594 C 76.828125 390.339844 76.78125 392.246094 76.777344 394.152344 C 76.777344 396.058594 76.824219 397.960938 76.917969 399.867188 C 77.007812 401.769531 77.148438 403.671875 77.335938 405.566406 C 77.519531 407.464844 77.753906 409.355469 78.03125 411.242188 C 78.308594 413.125 78.632812 415.003906 79.003906 416.875 C 79.375 418.742188 79.792969 420.601562 80.253906 422.453125 C 80.71875 424.300781 81.226562 426.136719 81.777344 427.960938 C 82.332031 429.785156 82.925781 431.59375 83.570312 433.390625 C 84.210938 435.183594 84.894531 436.960938 85.625 438.722656 C 86.351562 440.484375 87.125 442.226562 87.9375 443.949219 C 88.753906 445.671875 89.609375 447.375 90.503906 449.054688 C 91.402344 450.734375 92.34375 452.394531 93.320312 454.027344 C 94.300781 455.660156 95.320312 457.273438 96.378906 458.855469 C 97.4375 460.441406 98.53125 462 99.667969 463.53125 C 100.800781 465.058594 101.972656 466.5625 103.183594 468.035156 C 104.390625 469.507812 105.636719 470.949219 106.914062 472.363281 C 108.195312 473.773438 109.507812 475.15625 110.855469 476.5 C 112.203125 477.847656 113.582031 479.164062 114.992188 480.441406 C 116.40625 481.722656 117.847656 482.964844 119.320312 484.175781 C 120.792969 485.382812 122.296875 486.554688 123.828125 487.691406 C 125.355469 488.824219 126.914062 489.921875 128.5 490.980469 C 130.082031 492.039062 131.691406 493.058594 133.328125 494.039062 C 134.960938 495.015625 136.621094 495.957031 138.300781 496.855469 C 139.980469 497.75 141.683594 498.609375 143.40625 499.421875 C 145.128906 500.238281 146.871094 501.007812 148.632812 501.738281 C 150.390625 502.464844 152.171875 503.152344 153.964844 503.792969 C 155.757812 504.433594 157.570312 505.03125 159.390625 505.585938 C 161.214844 506.136719 163.054688 506.644531 164.902344 507.105469 C 166.75 507.570312 168.609375 507.984375 170.480469 508.355469 C 172.347656 508.726562 174.226562 509.054688 176.113281 509.332031 C 177.996094 509.613281 179.890625 509.84375 181.785156 510.03125 C 183.683594 510.214844 185.582031 510.355469 187.488281 510.449219 C 189.390625 510.542969 191.296875 510.585938 193.203125 510.585938 L 669.519531 510.332031 C 670.949219 510.304688 672.378906 510.246094 673.804688 510.148438 C 675.230469 510.054688 676.652344 509.925781 678.074219 509.761719 C 679.492188 509.597656 680.910156 509.398438 682.320312 509.167969 C 683.730469 508.933594 685.132812 508.667969 686.53125 508.367188 C 687.929688 508.066406 689.320312 507.730469 690.699219 507.363281 C 692.082031 506.996094 693.453125 506.59375 694.816406 506.160156 C 696.175781 505.722656 697.527344 505.257812 698.867188 504.753906 C 700.207031 504.253906 701.53125 503.722656 702.847656 503.15625 C 704.160156 502.59375 705.460938 501.996094 706.742188 501.367188 C 708.027344 500.742188 709.296875 500.082031 710.550781 499.390625 C 711.800781 498.703125 713.039062 497.984375 714.253906 497.234375 C 715.472656 496.484375 716.671875 495.707031 717.851562 494.898438 C 719.03125 494.089844 720.191406 493.253906 721.332031 492.390625 C 722.46875 491.527344 723.589844 490.636719 724.683594 489.71875 C 725.78125 488.800781 726.855469 487.855469 727.90625 486.882812 C 728.953125 485.914062 729.980469 484.917969 730.984375 483.898438 C 731.984375 482.878906 732.960938 481.835938 733.914062 480.765625 C 734.863281 479.699219 735.789062 478.609375 736.6875 477.496094 C 737.585938 476.386719 738.457031 475.25 739.300781 474.097656 C 740.144531 472.941406 740.960938 471.769531 741.746094 470.574219 C 742.53125 469.378906 743.289062 468.167969 744.019531 466.9375 C 744.746094 465.707031 745.441406 464.457031 746.109375 463.191406 C 746.777344 461.929688 747.414062 460.648438 748.019531 459.351562 C 748.621094 458.058594 749.195312 456.746094 749.738281 455.425781 C 750.277344 454.101562 750.789062 452.765625 751.265625 451.417969 C 751.742188 450.070312 752.183594 448.710938 752.59375 447.339844 C 753.003906 445.972656 753.382812 444.59375 753.726562 443.203125 C 754.070312 441.816406 754.378906 440.421875 754.65625 439.019531 C 754.929688 437.617188 755.171875 436.207031 755.378906 434.792969 C 755.585938 433.378906 755.761719 431.960938 755.898438 430.539062 C 756.035156 429.113281 756.140625 427.691406 756.210938 426.261719 C 756.28125 424.835938 756.3125 423.40625 756.3125 421.976562 C 756.3125 420.546875 756.28125 419.117188 756.210938 417.691406 C 756.140625 416.261719 756.035156 414.839844 755.898438 413.414062 C 755.757812 411.992188 755.585938 410.574219 755.378906 409.160156 C 755.171875 407.746094 754.929688 406.339844 754.652344 404.9375 C 754.378906 403.535156 754.066406 402.140625 753.722656 400.753906 C 753.378906 399.367188 753.003906 397.988281 752.59375 396.617188 C 752.179688 395.25 751.738281 393.890625 751.261719 392.546875 C 750.785156 391.199219 750.277344 389.863281 749.734375 388.539062 C 749.191406 387.21875 748.621094 385.910156 748.015625 384.617188 C 747.410156 383.320312 746.773438 382.042969 746.105469 380.777344 C 745.4375 379.515625 744.742188 378.269531 744.011719 377.039062 C 743.285156 375.808594 742.527344 374.597656 741.742188 373.40625 C 740.957031 372.214844 740.140625 371.039062 739.296875 369.886719 C 738.453125 368.734375 737.582031 367.601562 736.683594 366.492188 C 735.785156 365.378906 734.859375 364.292969 733.90625 363.226562 C 732.957031 362.160156 731.980469 361.117188 730.976562 360.101562 C 729.976562 359.082031 728.949219 358.089844 727.898438 357.121094 C 726.847656 356.152344 725.773438 355.210938 724.679688 354.292969 C 723.582031 353.378906 722.464844 352.488281 721.324219 351.625 C 720.183594 350.765625 719.023438 349.929688 717.84375 349.125 C 716.664062 348.320312 715.464844 347.542969 714.246094 346.796875 C 713.03125 346.050781 711.792969 345.332031 710.542969 344.644531 C 709.289062 343.957031 708.019531 343.300781 706.734375 342.675781 C 705.453125 342.050781 704.152344 341.457031 702.839844 340.894531 C 701.523438 340.332031 700.199219 339.800781 698.859375 339.300781 C 697.519531 338.804688 696.167969 338.339844 694.808594 337.90625 C 693.445312 337.472656 692.074219 337.074219 690.691406 336.710938 C 689.3125 336.34375 687.921875 336.011719 686.523438 335.714844 C 685.125 335.414062 683.722656 335.152344 682.3125 334.921875 C 680.902344 334.691406 679.484375 334.496094 678.066406 334.335938 C 676.644531 334.171875 675.222656 334.046875 673.796875 333.953125 C 672.371094 333.863281 670.941406 333.804688 669.511719 333.78125 L 257.148438 333.960938 C 255.160156 333.960938 253.175781 334.0625 251.195312 334.257812 C 249.214844 334.453125 247.25 334.746094 245.300781 335.132812 C 243.351562 335.523438 241.421875 336.007812 239.519531 336.585938 C 237.617188 337.160156 235.746094 337.832031 233.910156 338.59375 C 232.070312 339.355469 230.273438 340.207031 228.519531 341.144531 C 226.765625 342.082031 225.0625 343.105469 223.410156 344.210938 C 221.753906 345.316406 220.160156 346.5 218.621094 347.761719 C 217.082031 349.023438 215.609375 350.359375 214.203125 351.765625 C 212.796875 353.171875 211.460938 354.644531 210.199219 356.183594 C 208.9375 357.71875 207.753906 359.316406 206.648438 360.96875 C 205.542969 362.625 204.519531 364.328125 203.582031 366.082031 C 202.644531 367.835938 201.792969 369.632812 201.03125 371.46875 C 200.269531 373.308594 199.601562 375.179688 199.023438 377.082031 C 198.445312 378.984375 197.960938 380.910156 197.574219 382.863281 C 197.183594 384.8125 196.890625 386.777344 196.695312 388.757812 C 196.5 390.734375 196.402344 392.71875 196.402344 394.707031 C 196.398438 396.695312 196.496094 398.679688 196.691406 400.660156 C 196.882812 402.640625 197.175781 404.601562 197.5625 406.554688 C 197.949219 408.503906 198.429688 410.429688 199.007812 412.332031 C 199.585938 414.234375 200.253906 416.105469 201.011719 417.941406 C 201.773438 419.78125 202.621094 421.574219 203.558594 423.328125 C 204.496094 425.082031 205.515625 426.785156 206.621094 428.4375 C 207.722656 430.089844 208.90625 431.6875 210.167969 433.222656 C 211.429688 434.757812 212.761719 436.230469 214.167969 437.636719 C 215.574219 439.042969 217.042969 440.375 218.582031 441.636719 C 220.117188 442.898438 221.710938 444.078125 223.363281 445.183594 C 225.019531 446.289062 226.722656 447.308594 228.472656 448.246094 C 230.226562 449.179688 232.023438 450.03125 233.859375 450.789062 C 235.695312 451.550781 237.566406 452.21875 239.46875 452.796875 C 241.371094 453.371094 243.300781 453.851562 245.25 454.242188 C 247.199219 454.628906 249.164062 454.917969 251.144531 455.113281 C 253.121094 455.304688 255.105469 455.402344 257.09375 455.402344 L 593.109375 455.28125 C 594.015625 455.28125 594.914062 455.367188 595.804688 455.546875 C 596.691406 455.722656 597.554688 455.984375 598.390625 456.332031 C 599.230469 456.679688 600.023438 457.105469 600.777344 457.609375 C 601.53125 458.113281 602.226562 458.683594 602.867188 459.324219 C 603.507812 459.964844 604.082031 460.664062 604.582031 461.417969 C 605.085938 462.167969 605.511719 462.964844 605.855469 463.800781 C 606.203125 464.640625 606.464844 465.503906 606.640625 466.390625 C 606.816406 467.28125 606.90625 468.179688 606.90625 469.085938 C 606.90625 469.992188 606.816406 470.886719 606.640625 471.777344 C 606.460938 472.667969 606.199219 473.53125 605.851562 474.367188 C 605.503906 475.207031 605.082031 476 604.578125 476.753906 C 604.074219 477.507812 603.5 478.207031 602.859375 478.847656 C 602.21875 479.488281 601.519531 480.0625 600.769531 480.566406 C 600.015625 481.070312 599.21875 481.496094 598.382812 481.84375 C 597.542969 482.191406 596.679688 482.453125 595.792969 482.632812 C 594.902344 482.808594 594.003906 482.898438 593.097656 482.902344 L 257.144531 483.035156 C 255.707031 483.023438 254.273438 482.972656 252.839844 482.890625 C 251.40625 482.804688 249.972656 482.6875 248.546875 482.535156 C 247.117188 482.378906 245.695312 482.191406 244.277344 481.96875 C 242.859375 481.746094 241.445312 481.488281 240.039062 481.195312 C 238.632812 480.90625 237.234375 480.578125 235.84375 480.21875 C 234.453125 479.859375 233.074219 479.464844 231.703125 479.039062 C 230.332031 478.609375 228.972656 478.148438 227.625 477.65625 C 226.277344 477.160156 224.941406 476.636719 223.617188 476.078125 C 222.296875 475.519531 220.988281 474.925781 219.695312 474.304688 C 218.402344 473.679688 217.121094 473.027344 215.859375 472.34375 C 214.597656 471.65625 213.355469 470.941406 212.128906 470.195312 C 210.902344 469.449219 209.695312 468.675781 208.503906 467.871094 C 207.316406 467.0625 206.148438 466.230469 205 465.371094 C 203.851562 464.507812 202.726562 463.617188 201.621094 462.699219 C 200.515625 461.785156 199.433594 460.839844 198.375 459.871094 C 197.316406 458.902344 196.28125 457.90625 195.273438 456.886719 C 194.261719 455.867188 193.277344 454.820312 192.316406 453.753906 C 191.359375 452.683594 190.425781 451.59375 189.519531 450.480469 C 188.613281 449.367188 187.738281 448.230469 186.886719 447.074219 C 186.035156 445.917969 185.214844 444.742188 184.421875 443.542969 C 183.628906 442.347656 182.863281 441.132812 182.132812 439.898438 C 181.398438 438.664062 180.695312 437.414062 180.023438 436.144531 C 179.347656 434.875 178.707031 433.589844 178.097656 432.292969 C 177.488281 430.992188 176.910156 429.675781 176.363281 428.347656 C 175.820312 427.019531 175.304688 425.679688 174.824219 424.328125 C 174.34375 422.972656 173.898438 421.609375 173.484375 420.234375 C 173.070312 418.859375 172.691406 417.476562 172.34375 416.082031 C 172 414.6875 171.6875 413.289062 171.410156 411.878906 C 171.128906 410.46875 170.886719 409.054688 170.679688 407.632812 C 170.46875 406.214844 170.296875 404.789062 170.15625 403.359375 C 170.015625 401.929688 169.914062 400.496094 169.84375 399.0625 C 169.773438 397.628906 169.738281 396.191406 169.742188 394.757812 C 169.742188 393.320312 169.777344 391.886719 169.847656 390.449219 C 169.917969 389.015625 170.023438 387.582031 170.164062 386.152344 C 170.304688 384.722656 170.480469 383.300781 170.691406 381.878906 C 170.898438 380.457031 171.144531 379.042969 171.421875 377.632812 C 171.703125 376.222656 172.015625 374.824219 172.363281 373.429688 C 172.710938 372.035156 173.09375 370.648438 173.507812 369.273438 C 173.921875 367.898438 174.371094 366.535156 174.851562 365.179688 C 175.332031 363.828125 175.847656 362.488281 176.394531 361.15625 C 176.941406 359.828125 177.519531 358.515625 178.132812 357.214844 C 178.742188 355.914062 179.382812 354.628906 180.058594 353.359375 C 180.730469 352.089844 181.4375 350.839844 182.171875 349.605469 C 182.90625 348.371094 183.667969 347.152344 184.464844 345.957031 C 185.257812 344.757812 186.082031 343.582031 186.933594 342.421875 C 187.785156 341.265625 188.664062 340.128906 189.570312 339.015625 C 190.476562 337.902344 191.410156 336.808594 192.371094 335.738281 C 193.328125 334.671875 194.316406 333.625 195.324219 332.605469 C 196.335938 331.582031 197.371094 330.585938 198.433594 329.617188 C 199.492188 328.644531 200.574219 327.703125 201.679688 326.785156 C 202.785156 325.867188 203.910156 324.976562 205.0625 324.113281 C 206.210938 323.25 207.378906 322.414062 208.570312 321.609375 C 209.757812 320.804688 210.964844 320.027344 212.195312 319.28125 C 213.421875 318.535156 214.667969 317.816406 215.929688 317.132812 C 217.191406 316.445312 218.46875 315.789062 219.761719 315.164062 C 221.058594 314.542969 222.367188 313.949219 223.691406 313.390625 C 225.011719 312.828125 226.347656 312.300781 227.695312 311.808594 C 229.046875 311.3125 230.40625 310.851562 231.777344 310.421875 C 233.148438 309.992188 234.527344 309.597656 235.917969 309.238281 C 237.308594 308.875 238.707031 308.546875 240.113281 308.253906 C 241.519531 307.960938 242.933594 307.703125 244.351562 307.480469 C 245.769531 307.253906 247.195312 307.066406 248.621094 306.910156 C 250.050781 306.757812 251.480469 306.636719 252.914062 306.550781 C 254.347656 306.464844 255.785156 306.417969 257.21875 306.402344 L 669.585938 306.222656 C 672.429688 306.21875 675.273438 306.320312 678.109375 306.53125 C 680.949219 306.738281 683.773438 307.046875 686.589844 307.464844 C 689.402344 307.878906 692.199219 308.398438 694.972656 309.019531 C 697.75 309.640625 700.5 310.363281 703.222656 311.1875 C 705.945312 312.011719 708.632812 312.933594 711.289062 313.957031 C 713.941406 314.980469 716.554688 316.097656 719.128906 317.3125 C 721.699219 318.527344 724.222656 319.835938 726.699219 321.238281 C 729.171875 322.640625 731.59375 324.128906 733.960938 325.707031 C 736.324219 327.289062 738.628906 328.953125 740.871094 330.703125 C 743.113281 332.449219 745.289062 334.28125 747.394531 336.191406 C 749.503906 338.101562 751.539062 340.085938 753.5 342.144531 C 755.460938 344.203125 757.34375 346.332031 759.148438 348.53125 C 760.953125 350.730469 762.671875 352.992188 764.308594 355.320312 C 765.945312 357.644531 767.496094 360.027344 768.957031 362.46875 C 770.421875 364.90625 771.789062 367.398438 773.066406 369.9375 C 774.347656 372.480469 775.527344 375.0625 776.617188 377.691406 C 777.703125 380.320312 778.695312 382.984375 779.585938 385.6875 C 780.476562 388.390625 781.265625 391.121094 781.957031 393.878906 C 782.644531 396.640625 783.234375 399.421875 783.71875 402.222656 C 784.203125 405.027344 784.585938 407.84375 784.859375 410.675781 C 785.136719 413.507812 785.3125 416.347656 785.378906 419.191406 C 785.445312 422.035156 785.410156 424.878906 785.269531 427.71875 C 785.128906 430.5625 784.882812 433.394531 784.53125 436.21875 C 784.179688 439.042969 783.726562 441.851562 783.171875 444.640625 C 782.613281 447.433594 781.953125 450.199219 781.195312 452.941406 C 780.433594 455.683594 779.574219 458.394531 778.613281 461.074219 C 777.652344 463.753906 776.59375 466.394531 775.4375 468.996094 C 774.285156 471.59375 773.035156 474.152344 771.691406 476.660156 C 770.347656 479.171875 768.914062 481.625 767.390625 484.03125 C 765.867188 486.433594 764.253906 488.78125 762.558594 491.066406 C 760.863281 493.351562 759.082031 495.570312 757.222656 497.726562 C 755.363281 499.878906 753.425781 501.964844 751.410156 503.976562 Z M 751.386719 503.976562 " fill-opacity="1" fill-rule="nonzero"/></g></g></g><g fill="#000000" fill-opacity="0.302"><g transform="translate(243.939673, 429.17821)"><g><path d="M 37.597656 -70 C 18.300781 -70 2.601562 -54.296875 2.601562 -35 C 2.601562 -15.699219 18.300781 0 37.597656 0 C 56.898438 0 72.597656 -15.699219 72.597656 -35 C 72.597656 -54.296875 56.898438 -70 37.597656 -70 Z M 37.597656 -12.5 C 25.199219 -12.5 15.101562 -22.597656 15.101562 -35 C 15.101562 -47.398438 25.199219 -57.5 37.597656 -57.5 C 50 -57.5 60.097656 -47.398438 60.097656 -35 C 60.097656 -22.597656 50 -12.5 37.597656 -12.5 Z M 37.597656 -12.5 "/></g></g></g><g fill="#000000" fill-opacity="0.302"><g transform="translate(303.236814, 429.17821)"><g><path d="M 26 -12.5 C 21.597656 -13.101562 18.097656 -16.597656 17.5 -21 L 17.5 -69.898438 L 5 -69.898438 L 5 -22.199219 C 5 -18.699219 5.800781 -15.398438 7.300781 -12.398438 C 9.398438 -8 13 -4.398438 17.398438 -2.199219 C 20.398438 -0.699219 23.699219 0.101562 27.199219 0.101562 L 62.699219 0.101562 L 62.699219 -12.398438 Z M 26 -12.5 "/></g></g></g><g fill="#000000" fill-opacity="0.302"><g transform="translate(355.034241, 429.17821)"><g><path d="M 26 -12.5 C 21.597656 -13.101562 18.097656 -16.597656 17.5 -21 L 17.5 -69.898438 L 5 -69.898438 L 5 -22.199219 C 5 -18.699219 5.800781 -15.398438 7.300781 -12.398438 C 9.398438 -8 13 -4.398438 17.398438 -2.199219 C 20.398438 -0.699219 23.699219 0.101562 27.199219 0.101562 L 62.699219 0.101562 L 62.699219 -12.398438 Z M 26 -12.5 "/></g></g></g><g fill="#000000" fill-opacity="0.302"><g transform="translate(406.831663, 429.17821)"><g><path d="M 66 -12.5 L 36.699219 -70 L 7.398438 -12.5 L 1 0 L 15 0 L 21.398438 -12.5 L 36.699219 -42.5 L 52 -12.5 L 58.398438 0 L 72.398438 0 Z M 66 -12.5 "/></g></g></g><g fill="#000000" fill-opacity="0.302"><g transform="translate(464.328883, 429.17821)"><g><path d="M 5 -69.898438 L 5 -57.398438 L 33.699219 -57.398438 L 33.699219 0.101562 L 46.199219 0.101562 L 46.199219 -57.398438 L 74.898438 -57.398438 L 74.898438 -69.898438 Z M 5 -69.898438 "/></g></g></g><g fill="#000000" fill-opacity="0.302"><g transform="translate(528.425842, 429.17821)"><g><path d="M 23.898438 -57.5 L 75 -57.5 L 75 -70 L 23.898438 -70 C 13.5 -70 5.101562 -61.5 5.101562 -51.097656 L 5.101562 -18.898438 C 5.101562 -8.5 13.5 0 23.898438 0 L 75 0 L 75 -12.5 L 23.898438 -12.5 C 20.398438 -12.5 17.5 -15.398438 17.5 -18.898438 L 17.5 -32.097656 L 62.5 -32.097656 L 62.5 -44.597656 L 17.5 -44.597656 L 17.5 -51.097656 C 17.5 -54.597656 20.398438 -57.5 23.898438 -57.5 Z M 23.898438 -57.5 "/></g></g></g><g fill="#000000" fill-opacity="0.502"><g transform="translate(243.851286, 429.089823)"><g><path d="M 37.597656 -70 C 18.300781 -70 2.601562 -54.296875 2.601562 -35 C 2.601562 -15.699219 18.300781 0 37.597656 0 C 56.898438 0 72.597656 -15.699219 72.597656 -35 C 72.597656 -54.296875 56.898438 -70 37.597656 -70 Z M 37.597656 -12.5 C 25.199219 -12.5 15.101562 -22.597656 15.101562 -35 C 15.101562 -47.398438 25.199219 -57.5 37.597656 -57.5 C 50 -57.5 60.097656 -47.398438 60.097656 -35 C 60.097656 -22.597656 50 -12.5 37.597656 -12.5 Z M 37.597656 -12.5 "/></g></g></g><g fill="#000000" fill-opacity="0.502"><g transform="translate(303.148427, 429.089823)"><g><path d="M 26 -12.5 C 21.597656 -13.101562 18.097656 -16.597656 17.5 -21 L 17.5 -69.898438 L 5 -69.898438 L 5 -22.199219 C 5 -18.699219 5.800781 -15.398438 7.300781 -12.398438 C 9.398438 -8 13 -4.398438 17.398438 -2.199219 C 20.398438 -0.699219 23.699219 0.101562 27.199219 0.101562 L 62.699219 0.101562 L 62.699219 -12.398438 Z M 26 -12.5 "/></g></g></g><g fill="#000000" fill-opacity="0.502"><g transform="translate(354.945854, 429.089823)"><g><path d="M 26 -12.5 C 21.597656 -13.101562 18.097656 -16.597656 17.5 -21 L 17.5 -69.898438 L 5 -69.898438 L 5 -22.199219 C 5 -18.699219 5.800781 -15.398438 7.300781 -12.398438 C 9.398438 -8 13 -4.398438 17.398438 -2.199219 C 20.398438 -0.699219 23.699219 0.101562 27.199219 0.101562 L 62.699219 0.101562 L 62.699219 -12.398438 Z M 26 -12.5 "/></g></g></g><g fill="#000000" fill-opacity="0.502"><g transform="translate(406.743276, 429.089823)"><g><path d="M 66 -12.5 L 36.699219 -70 L 7.398438 -12.5 L 1 0 L 15 0 L 21.398438 -12.5 L 36.699219 -42.5 L 52 -12.5 L 58.398438 0 L 72.398438 0 Z M 66 -12.5 "/></g></g></g><g fill="#000000" fill-opacity="0.502"><g transform="translate(464.240496, 429.089823)"><g><path d="M 5 -69.898438 L 5 -57.398438 L 33.699219 -57.398438 L 33.699219 0.101562 L 46.199219 0.101562 L 46.199219 -57.398438 L 74.898438 -57.398438 L 74.898438 -69.898438 Z M 5 -69.898438 "/></g></g></g><g fill="#000000" fill-opacity="0.502"><g transform="translate(528.337455, 429.089823)"><g><path d="M 23.898438 -57.5 L 75 -57.5 L 75 -70 L 23.898438 -70 C 13.5 -70 5.101562 -61.5 5.101562 -51.097656 L 5.101562 -18.898438 C 5.101562 -8.5 13.5 0 23.898438 0 L 75 0 L 75 -12.5 L 23.898438 -12.5 C 20.398438 -12.5 17.5 -15.398438 17.5 -18.898438 L 17.5 -32.097656 L 62.5 -32.097656 L 62.5 -44.597656 L 17.5 -44.597656 L 17.5 -51.097656 C 17.5 -54.597656 20.398438 -57.5 23.898438 -57.5 Z M 23.898438 -57.5 "/></g></g></g><g fill="#000000" fill-opacity="1"><g transform="translate(243.762896, 429.001434)"><g><path d="M 37.597656 -70 C 18.300781 -70 2.601562 -54.296875 2.601562 -35 C 2.601562 -15.699219 18.300781 0 37.597656 0 C 56.898438 0 72.597656 -15.699219 72.597656 -35 C 72.597656 -54.296875 56.898438 -70 37.597656 -70 Z M 37.597656 -12.5 C 25.199219 -12.5 15.101562 -22.597656 15.101562 -35 C 15.101562 -47.398438 25.199219 -57.5 37.597656 -57.5 C 50 -57.5 60.097656 -47.398438 60.097656 -35 C 60.097656 -22.597656 50 -12.5 37.597656 -12.5 Z M 37.597656 -12.5 "/></g></g></g><g fill="#000000" fill-opacity="1"><g transform="translate(303.060037, 429.001434)"><g><path d="M 26 -12.5 C 21.597656 -13.101562 18.097656 -16.597656 17.5 -21 L 17.5 -69.898438 L 5 -69.898438 L 5 -22.199219 C 5 -18.699219 5.800781 -15.398438 7.300781 -12.398438 C 9.398438 -8 13 -4.398438 17.398438 -2.199219 C 20.398438 -0.699219 23.699219 0.101562 27.199219 0.101562 L 62.699219 0.101562 L 62.699219 -12.398438 Z M 26 -12.5 "/></g></g></g><g fill="#000000" fill-opacity="1"><g transform="translate(354.857465, 429.001434)"><g><path d="M 26 -12.5 C 21.597656 -13.101562 18.097656 -16.597656 17.5 -21 L 17.5 -69.898438 L 5 -69.898438 L 5 -22.199219 C 5 -18.699219 5.800781 -15.398438 7.300781 -12.398438 C 9.398438 -8 13 -4.398438 17.398438 -2.199219 C 20.398438 -0.699219 23.699219 0.101562 27.199219 0.101562 L 62.699219 0.101562 L 62.699219 -12.398438 Z M 26 -12.5 "/></g></g></g><g fill="#000000" fill-opacity="1"><g transform="translate(406.654886, 429.001434)"><g><path d="M 66 -12.5 L 36.699219 -70 L 7.398438 -12.5 L 1 0 L 15 0 L 21.398438 -12.5 L 36.699219 -42.5 L 52 -12.5 L 58.398438 0 L 72.398438 0 Z M 66 -12.5 "/></g></g></g><g fill="#000000" fill-opacity="1"><g transform="translate(464.152106, 429.001434)"><g><path d="M 5 -69.898438 L 5 -57.398438 L 33.699219 -57.398438 L 33.699219 0.101562 L 46.199219 0.101562 L 46.199219 -57.398438 L 74.898438 -57.398438 L 74.898438 -69.898438 Z M 5 -69.898438 "/></g></g></g><g fill="#000000" fill-opacity="1"><g transform="translate(528.249065, 429.001434)"><g><path d="M 23.898438 -57.5 L 75 -57.5 L 75 -70 L 23.898438 -70 C 13.5 -70 5.101562 -61.5 5.101562 -51.097656 L 5.101562 -18.898438 C 5.101562 -8.5 13.5 0 23.898438 0 L 75 0 L 75 -12.5 L 23.898438 -12.5 C 20.398438 -12.5 17.5 -15.398438 17.5 -18.898438 L 17.5 -32.097656 L 62.5 -32.097656 L 62.5 -44.597656 L 17.5 -44.597656 L 17.5 -51.097656 C 17.5 -54.597656 20.398438 -57.5 23.898438 -57.5 Z M 23.898438 -57.5 "/></g></g></g><g fill="#ffffff" fill-opacity="1"><g transform="translate(168.195463, 476.931577)"><g><path d="M 91.101562 -134.3125 L 172.855469 -134.3125 L 172.855469 -163.511719 L 91.101562 -163.511719 C 46.015625 -163.511719 9.34375 -126.839844 9.34375 -81.757812 C 9.34375 -36.671875 46.015625 0 91.101562 0 L 172.855469 0 L 172.855469 -29.199219 L 91.101562 -29.199219 C 62.136719 -29.199219 38.542969 -52.792969 38.542969 -81.757812 C 38.542969 -110.722656 62.136719 -134.3125 91.101562 -134.3125 Z M 91.101562 -134.3125 "/></g></g></g><g fill="#60a26d" fill-opacity="1"><g transform="translate(176.014931, 469.977066)"><g><path d="M 83.378906 -122.929688 L 158.203125 -122.929688 L 158.203125 -149.652344 L 83.378906 -149.652344 C 42.117188 -149.652344 8.550781 -116.085938 8.550781 -74.824219 C 8.550781 -33.566406 42.117188 0 83.378906 0 L 158.203125 0 L 158.203125 -26.722656 L 83.378906 -26.722656 C 56.867188 -26.722656 35.273438 -48.316406 35.273438 -74.824219 C 35.273438 -101.335938 56.867188 -122.929688 83.378906 -122.929688 Z M 83.378906 -122.929688 "/></g></g></g><g clip-path="url(#69c5620be5)"><path fill="#60a26d" d="M 292.648438 394.207031 C 292.648438 400.21875 287.78125 405.085938 281.777344 405.085938 C 278.414062 405.085938 275.410156 403.558594 273.414062 401.160156 C 271.925781 399.367188 271 397.089844 270.914062 394.601562 C 270.910156 394.472656 270.90625 394.339844 270.90625 394.207031 C 270.90625 388.203125 275.773438 383.335938 281.777344 383.335938 C 283.011719 383.335938 284.195312 383.539062 285.300781 383.921875 C 287.589844 384.703125 289.535156 386.230469 290.847656 388.21875 C 291.984375 389.933594 292.648438 391.996094 292.648438 394.207031 " fill-opacity="1" fill-rule="nonzero"/></g><g clip-path="url(#08fbdc0e13)"><path fill="#60a26d" d="M 427.5 428.414062 L 444 399.917969 L 460.5 428.414062 Z M 427.5 428.414062 " fill-opacity="1" fill-rule="nonzero"/></g></svg>